<svg xmlns="http://www.w3.org/2000/svg" width="45.664" height="41.87" viewBox="0 0 45.664 41.87">
  <g id="그룹_1759" data-name="그룹 1759" transform="translate(-418.565 -1319.975)">
    <path id="패스_14" data-name="패스 14" d="M685.844,1834.822a12.475,12.475,0,0,0-16.175-1.239l-1.9,1.874-.636-.635a12.479,12.479,0,0,0-17.647,17.647l18.2,18.155,18.152-18.154a12.48,12.48,0,0,0,0-17.649Zm-16.738,18.542c2.307,1.614,4.8,3.36,6.962,4.881l-6.962,6.963Zm-16.75-2.029-.866-.866a9.648,9.648,0,0,1,13.643-13.645l1.095,1.095v27.237l-13.174-13.17Zm31.489-.866-5.71,5.71c-3.012-2.119-6.641-4.657-9.028-6.327v-11.745l1.226-1.219,1.147-1.141a9.649,9.649,0,0,1,12.365,14.721Z" transform="translate(-226.27 -510.193)" fill="#0077c6" stroke="#0077c6" stroke-width="2"/>
  </g>
</svg>
