<?xml version="1.0" encoding="utf-8"?>
<!-- Generator: Adobe Illustrator 24.1.1, SVG Export Plug-In . SVG Version: 6.00 Build 0)  -->
<svg version="1.1" id="레이어_1" xmlns="http://www.w3.org/2000/svg" xmlns:xlink="http://www.w3.org/1999/xlink" x="0px"
	 y="0px" viewBox="0 0 24 24" style="enable-background:new 0 0 24 24;" xml:space="preserve">
<style type="text/css">
	.st0{fill:#0077C6;}
</style>
<g id="레이어_2_1_">
	<g id="레이어_1-2">
		<path class="st0" d="M22.7,0H1.3C0.6,0,0,0.6,0,1.3c0,0,0,0,0,0v21.4C0,23.4,0.6,24,1.3,24c0,0,0,0,0,0h11.5v-9.3H9.7v-3.6h3.1
			V8.4c0-3.1,1.9-4.8,4.7-4.8c0.9,0,1.9,0,2.8,0.2V7h-1.9c-1.5,0-1.8,0.7-1.8,1.8v2.3h3.6l-0.5,3.6h-3.1V24h6.1
			c0.7,0,1.3-0.6,1.3-1.3c0,0,0,0,0,0V1.3C24,0.6,23.4,0,22.7,0z"/>
	</g>
</g>
</svg>
