<?xml version="1.0" encoding="utf-8"?>
<!-- Generator: Adobe Illustrator 24.1.1, SVG Export Plug-In . SVG Version: 6.00 Build 0)  -->
<svg version="1.1" id="레이어_1" xmlns="http://www.w3.org/2000/svg" xmlns:xlink="http://www.w3.org/1999/xlink" x="0px"
	 y="0px" viewBox="0 0 24 19.5" style="enable-background:new 0 0 24 19.5;" xml:space="preserve">
<style type="text/css">
	.st0{fill:#0077C6;}
</style>
<g id="레이어_2_1_">
	<g id="레이어_1-2">
		<path class="st0" d="M24,2.3c-0.9,0.4-1.9,0.7-2.8,0.8c1-0.6,1.8-1.6,2.2-2.7c-1,0.6-2,1-3.1,1.2c-1.9-2-5-2.1-7-0.2
			c-1.3,1.2-1.8,3-1.4,4.7C7.9,5.8,4.2,4,1.7,0.9C0.4,3.2,1,6,3.2,7.5C2.4,7.4,1.7,7.2,1,6.9c0,2.4,1.7,4.4,4,4.9
			c-0.7,0.2-1.5,0.2-2.2,0.1c0.6,2,2.5,3.4,4.6,3.4c-2.1,1.6-4.7,2.3-7.3,2c2.2,1.4,4.8,2.2,7.5,2.3c7.7,0.1,14-6.1,14-13.8
			c0-0.3,0-0.5,0-0.8C22.5,4.2,23.3,3.3,24,2.3z"/>
	</g>
</g>
</svg>
